<svg width="245" height="228" viewBox="0 0 245 228" fill="none" xmlns="http://www.w3.org/2000/svg">
<path d="M221.562 46.0534C204.551 21.2754 171.284 8.70837 122.706 8.70837H122.624C74.1181 8.72221 40.9335 21.2922 23.9976 46.0702C9.81761 66.8117 8 93.2541 8 113.97C8 134.686 9.81761 161.126 23.9976 181.867C40.9365 206.642 74.1211 219.215 122.627 219.232H122.72C171.296 219.232 204.548 206.667 221.56 181.889C235.83 161.103 237.662 134.672 237.662 113.97C237.662 93.2679 235.833 66.8399 221.562 46.0534Z" fill="#09090A"/>
<path d="M123 84.75L155.5 141.04H90.5L123 84.75Z" fill="white"/>
</svg>
